<?xml version="1.0" encoding="UTF-8" standalone="no"?>
<!-- Created with Inkscape (http://www.inkscape.org/) -->

<svg
   xmlns:dc="http://purl.org/dc/elements/1.1/"
   xmlns:cc="http://creativecommons.org/ns#"
   xmlns:rdf="http://www.w3.org/1999/02/22-rdf-syntax-ns#"
   xmlns:svg="http://www.w3.org/2000/svg"
   xmlns="http://www.w3.org/2000/svg"
   xmlns:sodipodi="http://sodipodi.sourceforge.net/DTD/sodipodi-0.dtd"
   xmlns:inkscape="http://www.inkscape.org/namespaces/inkscape"
   width="68.949089mm"
   height="11.853333mm"
   viewBox="0 0 68.949089 11.853333"
   version="1.1"
   id="svg8"
   inkscape:version="0.92.2 5c3e80d, 2017-08-06"
   sodipodi:docname="m_labs_logo_white.svg">
  <defs
     id="defs2" />
  <sodipodi:namedview
     id="base"
     pagecolor="#ffffff"
     bordercolor="#666666"
     borderopacity="1.0"
     inkscape:pageopacity="0.0"
     inkscape:pageshadow="2"
     inkscape:zoom="0.7"
     inkscape:cx="311.62925"
     inkscape:cy="-119.31219"
     inkscape:document-units="mm"
     inkscape:current-layer="layer1"
     showgrid="false"
     fit-margin-top="0"
     fit-margin-left="0"
     fit-margin-right="0"
     fit-margin-bottom="0"
     inkscape:window-width="1920"
     inkscape:window-height="1124"
     inkscape:window-x="0"
     inkscape:window-y="0"
     inkscape:window-maximized="1" />
  <metadata
     id="metadata5">
    <rdf:RDF>
      <cc:Work
         rdf:about="">
        <dc:format>image/svg+xml</dc:format>
        <dc:type
           rdf:resource="http://purl.org/dc/dcmitype/StillImage" />
        <dc:title></dc:title>
      </cc:Work>
    </rdf:RDF>
  </metadata>
  <g
     inkscape:label="Layer 1"
     inkscape:groupmode="layer"
     id="layer1"
     transform="translate(-57.67714,-43.535019)">
    <g
       aria-label="M-LABS"
       style="font-style:normal;font-variant:normal;font-weight:normal;font-stretch:normal;font-size:25.39999962px;line-height:6.61458302px;font-family:'Intro Inline';-inkscape-font-specification:'Intro Inline, Normal';font-variant-ligatures:normal;font-variant-caps:normal;font-variant-numeric:normal;font-feature-settings:normal;text-align:start;letter-spacing:0px;word-spacing:0px;writing-mode:lr-tb;text-anchor:start;fill:#cccccc;fill-opacity:1;stroke:none;stroke-width:0.26458332"
       id="text3701">
      <path
         d="m 57.67714,43.535019 h 3.420534 l 3.166533,8.788399 3.183466,-8.788399 h 3.420533 V 55.388351 H 68.54834 v -8.314266 l -2.9972,8.314266 h -2.556933 l -2.9464,-8.314266 v 8.314266 H 57.67714 Z"
         style="font-style:normal;font-variant:normal;font-weight:normal;font-stretch:normal;font-size:16.93333244px;font-family:'SF Fourche SC';-inkscape-font-specification:'SF Fourche SC, Normal';font-variant-ligatures:normal;font-variant-caps:normal;font-variant-numeric:normal;font-feature-settings:normal;text-align:start;writing-mode:lr-tb;text-anchor:start;fill:#cccccc;stroke-width:0.26458332"
         id="path3703" />
      <path
         d="m 72.890681,49.377018 h 6.773333 v 1.862667 h -6.773333 z"
         style="font-style:normal;font-variant:normal;font-weight:normal;font-stretch:normal;font-size:16.93333244px;font-family:'SF Fourche SC';-inkscape-font-specification:'SF Fourche SC, Normal';font-variant-ligatures:normal;font-variant-caps:normal;font-variant-numeric:normal;font-feature-settings:normal;text-align:start;writing-mode:lr-tb;text-anchor:start;fill:#cccccc;stroke-width:0.26458332"
         id="path3705" />
      <path
         d="m 81.518744,43.535019 h 2.370666 v 7.111999 q 0,0.778934 0.237067,1.303867 0.237067,0.508 0.643467,0.829733 0.423333,0.3048 0.982133,0.440267 0.5588,0.135467 1.185333,0.135467 h 3.048 v 2.031999 h -3.048 q -1.1176,0 -2.099733,-0.237066 -0.982133,-0.237067 -1.7272,-0.795867 -0.728133,-0.5588 -1.1684,-1.456266 -0.423333,-0.9144 -0.423333,-2.252134 z"
         style="font-style:normal;font-variant:normal;font-weight:normal;font-stretch:normal;font-size:16.93333244px;font-family:'SF Fourche SC';-inkscape-font-specification:'SF Fourche SC, Normal';font-variant-ligatures:normal;font-variant-caps:normal;font-variant-numeric:normal;font-feature-settings:normal;text-align:start;writing-mode:lr-tb;text-anchor:start;fill:#cccccc;stroke-width:0.26458332"
         id="path3707" />
      <path
         d="m 95.273902,43.535019 h 2.556933 l 5.283195,11.853332 h -2.6416 l -0.999062,-2.370666 h -5.842 l -0.999066,2.370666 h -2.6416 z m 3.335866,7.450666 -2.065866,-4.842933 -2.048934,4.842933 z"
         style="font-style:normal;font-variant:normal;font-weight:normal;font-stretch:normal;font-size:16.93333244px;font-family:'SF Fourche SC';-inkscape-font-specification:'SF Fourche SC, Normal';font-variant-ligatures:normal;font-variant-caps:normal;font-variant-numeric:normal;font-feature-settings:normal;text-align:start;writing-mode:lr-tb;text-anchor:start;fill:#cccccc;stroke-width:0.26458332"
         id="path3709" />
      <path
         d="m 103.78079,43.535019 h 6.858 q 0.77893,0 1.4732,0.169333 0.69426,0.1524 1.2192,0.541867 0.52493,0.372533 0.8128,0.982133 0.3048,0.6096 0.3048,1.524 0,0.982133 -0.33867,1.6256 -0.33867,0.626533 -0.93133,0.999066 0.72813,0.3556 1.1684,1.032934 0.44026,0.6604 0.44026,1.761066 0,0.9144 -0.3048,1.524 -0.28786,0.6096 -0.8128,0.999067 -0.52493,0.372533 -1.2192,0.541866 -0.69426,0.1524 -1.4732,0.1524 h -7.19666 z m 6.858,4.910666 q 0.59266,0 1.016,-0.3048 0.42333,-0.321733 0.42333,-1.134533 0,-0.795867 -0.42333,-1.1176 -0.42334,-0.321733 -1.016,-0.321733 h -4.48734 v 2.878666 z m 0.33866,4.910667 q 0.59267,0 1.016,-0.3048 0.42334,-0.321734 0.42334,-1.134534 0,-0.795866 -0.42334,-1.1176 -0.42333,-0.321733 -1.016,-0.321733 h -4.826 v 2.878667 z"
         style="font-style:normal;font-variant:normal;font-weight:normal;font-stretch:normal;font-size:16.93333244px;font-family:'SF Fourche SC';-inkscape-font-specification:'SF Fourche SC, Normal';font-variant-ligatures:normal;font-variant-caps:normal;font-variant-numeric:normal;font-feature-settings:normal;text-align:start;writing-mode:lr-tb;text-anchor:start;fill:#cccccc;stroke-width:0.26458332"
         id="path3711" />
      <path
         d="m 116.46623,53.356352 h 6.18067 q 0.6604,0 1.13453,-0.3048 0.47414,-0.321734 0.47414,-1.134534 0,-0.795866 -0.47414,-1.1176 -0.47413,-0.321733 -1.13453,-0.321733 h -2.87867 q -0.82973,0 -1.50706,-0.169333 -0.67734,-0.186267 -1.15147,-0.592667 -0.47413,-0.4064 -0.72813,-1.0668 -0.254,-0.677333 -0.254,-1.642533 0,-0.982133 0.254,-1.642533 0.254,-0.677334 0.72813,-1.083734 0.47413,-0.4064 1.15147,-0.575733 0.67733,-0.169333 1.50706,-0.169333 h 6.51934 v 2.032 h -6.18067 q -0.6604,0 -1.13453,0.321733 -0.47414,0.3048 -0.47414,1.1176 0,0.795867 0.47414,1.1176 0.47413,0.321733 1.13453,0.321733 h 2.87867 q 0.82973,0 1.50706,0.186267 0.67734,0.169333 1.15147,0.575733 0.47413,0.4064 0.72813,1.083733 0.254,0.6604 0.254,1.6256 0,0.999067 -0.254,1.659467 -0.254,0.6604 -0.72813,1.0668 -0.47413,0.4064 -1.15147,0.575733 -0.67733,0.169333 -1.50706,0.169333 h -6.51934 z"
         style="font-style:normal;font-variant:normal;font-weight:normal;font-stretch:normal;font-size:16.93333244px;font-family:'SF Fourche SC';-inkscape-font-specification:'SF Fourche SC, Normal';font-variant-ligatures:normal;font-variant-caps:normal;font-variant-numeric:normal;font-feature-settings:normal;text-align:start;writing-mode:lr-tb;text-anchor:start;fill:#cccccc;stroke-width:0.26458332"
         id="path3713" />
    </g>
  </g>
</svg>
