<?xml version="1.0" encoding="UTF-8" standalone="no"?>
<!-- Created with Inkscape (http://www.inkscape.org/) -->

<svg
   xmlns:dc="http://purl.org/dc/elements/1.1/"
   xmlns:cc="http://creativecommons.org/ns#"
   xmlns:rdf="http://www.w3.org/1999/02/22-rdf-syntax-ns#"
   xmlns:svg="http://www.w3.org/2000/svg"
   xmlns="http://www.w3.org/2000/svg"
   xmlns:sodipodi="http://sodipodi.sourceforge.net/DTD/sodipodi-0.dtd"
   xmlns:inkscape="http://www.inkscape.org/namespaces/inkscape"
   version="1.1"
   id="svg2"
   xml:space="preserve"
   width="455.26877"
   height="211.228"
   viewBox="0 0 455.26877 211.228"
   sodipodi:docname="sinara_logo.svg"
   inkscape:version="0.92.2 5c3e80d, 2017-08-06"><metadata
     id="metadata8"><rdf:RDF><cc:Work
         rdf:about=""><dc:format>image/svg+xml</dc:format><dc:type
           rdf:resource="http://purl.org/dc/dcmitype/StillImage" /><dc:title></dc:title></cc:Work></rdf:RDF></metadata><defs
     id="defs6"><clipPath
       clipPathUnits="userSpaceOnUse"
       id="clipPath20"><path
         d="M 0,0.285156 H 6118.32 V 7918.1952 H 0 Z"
         id="path18"
         inkscape:connector-curvature="0"
         style="clip-rule:evenodd" /></clipPath></defs><sodipodi:namedview
     pagecolor="#ffffff"
     bordercolor="#666666"
     borderopacity="1"
     objecttolerance="10"
     gridtolerance="10"
     guidetolerance="10"
     inkscape:pageopacity="0"
     inkscape:pageshadow="2"
     inkscape:window-width="1920"
     inkscape:window-height="1124"
     id="namedview4"
     showgrid="false"
     fit-margin-top="0"
     fit-margin-left="0"
     fit-margin-right="0"
     fit-margin-bottom="0"
     inkscape:zoom="0.22348485"
     inkscape:cx="-428.87989"
     inkscape:cy="34.960012"
     inkscape:window-x="0"
     inkscape:window-y="0"
     inkscape:window-maximized="1"
     inkscape:current-layer="g10" /><g
     id="g10"
     inkscape:groupmode="layer"
     inkscape:label="ink_ext_XXXXXX"
     transform="matrix(1.3333333,0,0,-1.3333333,-11.320569,704.26798)"><g
       id="g12"
       transform="scale(0.1)"><g
         id="g14"><g
           id="g16"
           clip-path="url(#clipPath20)"><path
             d="m 1397.45,3760.15 c 25.22,0 45.62,20.12 45.62,44.49 -0.28,24.66 -20.97,44.78 -45.91,44.78 -24.94,0 -45.62,-20.4 -45.62,-45.06 0,-24.37 20.97,-44.49 45.91,-44.21"
             style="fill:#000000;fill-opacity:1;fill-rule:evenodd;stroke:none"
             id="path22"
             inkscape:connector-curvature="0" /><path
             d="m 324.211,4627.36 52.144,-47.33 c 1.418,0.85 2.266,1.7 3.403,2.55 101.457,87 217.082,162.38 344.328,224.17 162.105,79.07 300.404,120.44 435.584,130.36 12.19,1.14 23.53,1.42 34.58,1.42 45.06,0 83.32,-7.65 117.32,-23.52 37.41,-17.57 56.4,-46.76 56.12,-87.57 -0.28,-31.74 -9.64,-63.49 -28.62,-97.21 -13.32,-23.52 -28.06,-46.76 -42.8,-69.43 -5.95,-9.35 -12.18,-19.27 -18.14,-28.91 l 49.88,-46.48 c 39.68,49.31 82.76,109.96 102.88,183.36 1.98,8.5 3.97,17.29 5.95,25.79 0.85,3.97 1.7,7.94 2.83,11.62 v 42.79 c -0.28,0.85 -0.85,1.42 -0.85,2.27 -0.85,1.99 -1.41,3.69 -1.7,5.95 -9.92,58.95 -44.49,100.04 -104.57,126.11 -38.55,16.73 -80.49,20.98 -116.2,22.96 -11.05,0.85 -22.67,1.13 -34.01,1.13 -58.94,0 -120.16,-8.21 -187.039,-25.78 -230.403,-58.95 -448.34,-171.18 -647.571,-333.28 -5.382,-4.54 -10.769,-9.35 -16.437,-14.74 -2.266,-1.98 -4.531,-3.97 -7.082,-6.23"
             style="fill:#000000;fill-opacity:1;fill-rule:evenodd;stroke:none"
             id="path24"
             inkscape:connector-curvature="0" /><path
             d="m 467.609,4792.29 c 14.739,10.21 28.625,19.28 43.36,26.93 17.574,9.07 23.523,22.39 26.926,38.82 19.835,96.64 47.043,173.16 85.585,240.33 22.106,38.54 44.493,66.31 71.133,87.28 44.492,35.15 90.688,35.15 135.184,0.29 27.488,-21.82 50.16,-49.31 69.148,-83.6 10.77,-20.13 20.973,-40.53 31.172,-61.5 4.535,-8.5 8.504,-17.57 12.754,-26.64 l 70.849,18.14 c -5.67,11.61 -11.33,22.95 -17.001,34.29 -13.039,26.64 -25.223,52.14 -39.961,76.8 -48.461,81.9 -102.309,124.7 -174.008,138.58 h -41.375 c -59.516,-11.62 -108.824,-45.35 -149.918,-103.72 -17.57,-24.94 -33.727,-51.02 -46.762,-76.81 -36.558,-70.85 -62.632,-152.46 -82.754,-256.47 -2.832,-14.74 -5.101,-29.47 -7.652,-45.06 -0.848,-5.95 -1.984,-11.91 -2.832,-18.14 5.383,3.68 10.77,7.37 16.152,10.48"
             style="fill:#000000;fill-opacity:1;fill-rule:evenodd;stroke:none"
             id="path26"
             inkscape:connector-curvature="0" /><path
             d="m 404.129,4150.11 c -15.871,-1.42 -30.891,-3.12 -46.195,-3.68 -9.067,-0.57 -17.571,-0.57 -25.789,-0.57 -35.141,0 -65.75,3.97 -93.239,12.47 -3.968,1.42 -7.933,2.83 -11.902,3.97 -55.832,20.68 -79.352,62.34 -67.734,120.16 10.769,52.43 37.976,96.35 65.183,136.03 5.668,7.94 11.617,15.59 17.57,23.24 2.266,3.12 4.536,5.95 6.801,9.07 l -51.293,48.18 c -37.41,-44.78 -82.187,-105.71 -102.8747,-179.96 -15.586,-56.97 -11.0547,-108.83 13.8867,-149.36 24.937,-40.8 68.582,-69.43 126.961,-83.03 30.324,-7.09 62.066,-10.77 97.492,-10.77 18.703,0 37.973,1.13 59.512,2.83 12.187,1.14 24.375,2.84 36.844,4.54 5.101,0.56 9.918,1.41 14.453,1.98 l -18.989,66.88 c -7.086,-0.85 -13.886,-1.41 -20.687,-1.98"
             style="fill:#000000;fill-opacity:1;fill-rule:evenodd;stroke:none"
             id="path28"
             inkscape:connector-curvature="0" /><path
             d="m 331.863,4145.86 c 8.215,0 17.004,0 26.071,0.85 -9.067,-0.85 -17.856,-0.85 -26.071,-0.85"
             style="fill:#000000;fill-opacity:1;fill-rule:evenodd;stroke:none"
             id="path30"
             inkscape:connector-curvature="0" /><path
             d="m 238.621,4158.61 c 27.492,-8.78 58.098,-12.75 93.524,-12.75 -35.426,0 -66.032,3.97 -93.524,12.75"
             style="fill:#000000;fill-opacity:1;fill-rule:evenodd;stroke:none"
             id="path32"
             inkscape:connector-curvature="0" /><path
             d="m 332.996,4075.86 c -35.711,0 -67.449,3.68 -97.492,10.77 30.043,-7.09 61.781,-10.77 97.492,-10.77"
             style="fill:#000000;fill-opacity:1;fill-rule:evenodd;stroke:none"
             id="path34"
             inkscape:connector-curvature="0" /><path
             d="m 392.508,4078.98 c -21.82,-1.99 -41.094,-3.12 -59.512,-3.12 18.418,0 37.692,1.13 59.512,3.12"
             style="fill:#000000;fill-opacity:1;fill-rule:evenodd;stroke:none"
             id="path36"
             inkscape:connector-curvature="0" /><path
             d="m 950.809,4743.55 c -2.836,20.12 -5.954,39.68 -9.071,59.23 -1.984,9.63 -29.191,30.04 -40.527,30.04 -1.133,0 -1.699,0 -2.266,-0.57 -20.687,-6.8 -40.527,-14.73 -61.781,-22.95 -7.086,-2.84 -14.172,-5.67 -21.539,-8.22 l 138.301,-77.94 -3.117,20.41"
             style="fill:#000000;fill-opacity:1;fill-rule:evenodd;stroke:none"
             id="path38"
             inkscape:connector-curvature="0" /><path
             d="m 503.887,4623.67 c -1.703,-1.42 -3.117,-2.55 -4.821,-3.68 -2.55,-1.99 -4.535,-3.69 -7.086,-5.67 -14.167,-10.49 -27.203,-20.97 -41.375,-30.32 -13.601,-9.64 -18.703,-19.84 -16.437,-34.3 0.566,-3.11 0.566,-7.08 0.566,-10.48 0,-5.95 0,-11.9 2.27,-14.17 16.437,-14.74 34.289,-28.06 52.996,-42.51 2.832,-1.99 5.949,-4.54 9.066,-7.09 1.704,-1.13 3.118,-2.26 4.821,-3.68 0.847,-0.85 1.699,-1.42 2.832,-1.98 v 155.87 c -1.133,-0.57 -1.985,-1.42 -2.832,-1.99"
             style="fill:#000000;fill-opacity:1;fill-rule:evenodd;stroke:none"
             id="path40"
             inkscape:connector-curvature="0" /><path
             d="m 633.684,4889.79 0.566,0.28 c 17.004,8.5 33.723,16.72 51.578,25.79 l 19.84,9.63 -85.023,31.18 -19.555,-67.17 c 8.785,-3.97 13.039,-5.95 16.723,-5.95 2.832,0 5.949,1.41 10.203,3.4 1.699,1.13 3.964,1.7 5.668,2.84"
             style="fill:#000000;fill-opacity:1;fill-rule:evenodd;stroke:none"
             id="path42"
             inkscape:connector-curvature="0" /><path
             d="m 628.016,4886.95 c 1.699,1.13 3.964,1.7 5.949,3.12 h 0.285 -0.285 c -1.985,-1.42 -4.25,-1.99 -5.949,-3.12"
             style="fill:#000000;fill-opacity:1;fill-rule:evenodd;stroke:none"
             id="path44"
             inkscape:connector-curvature="0" /><path
             d="m 1200.2,4455.62 -50.73,47.04 c -4.53,-12.19 -10.49,-69.15 -7.37,-95.51 l 58.1,48.47"
             style="fill:#000000;fill-opacity:1;fill-rule:evenodd;stroke:none"
             id="path46"
             inkscape:connector-curvature="0" /><path
             d="m 606.191,4196.3 c -1.414,0 -2.832,-0.28 -3.117,-0.56 -0.566,-0.85 -0.847,-3.97 -0.281,-6.52 4.535,-15.59 8.785,-30.89 13.602,-47.61 l 3.968,-14.17 72.832,25.79 -14.734,7.93 c -23.809,11.91 -46.195,23.24 -68.867,34.58 -0.567,0.28 -1.985,0.56 -3.403,0.56"
             style="fill:#000000;fill-opacity:1;fill-rule:evenodd;stroke:none"
             id="path48"
             inkscape:connector-curvature="0" /><path
             d="m 762.348,4497.27 c 25.504,0 45.625,20.13 45.625,45.07 0,24.09 -20.973,44.49 -45.91,44.21 -24.938,0 -45.911,-20.41 -45.629,-44.78 0.285,-24.66 20.972,-44.78 45.914,-44.5"
             style="fill:#000000;fill-opacity:1;fill-rule:evenodd;stroke:none"
             id="path50"
             inkscape:connector-curvature="0" /><path
             d="m 765.465,4714.36 c 51.293,0 102.305,-21.54 137.449,-62.91 33.723,-39.97 46.191,-90.13 39.109,-137.45 3.399,-22.68 20.403,-65.75 82.467,-139.44 0,0 196.12,-244.85 333.85,-418.01 6.52,-7.37 32.3,-33.16 58.95,-41.94 24.37,-5.11 47.32,-17.57 64.33,-37.7 39.39,-46.48 32.87,-115.34 -14.46,-154.17 -20.97,-16.72 -46.76,-24.94 -71.7,-24.94 -32.02,0 -64.05,13.33 -86.15,39.4 -15.31,18.13 -23.81,39.96 -25.22,61.5 0,1.13 -0.29,5.1 -0.29,5.66 -2.55,25.23 -26.07,57.82 -35.14,69.72 l -364.734,386.56 c -62.914,73.97 -103.727,97.77 -126.113,105.14 -48.461,1.98 -96.075,23.52 -129.231,62.63 -63.199,74.25 -52.996,184.21 22.953,245.99 33.442,26.64 73.969,39.96 113.93,39.96 z m -41.379,-276.03 111.945,18.7 39.391,104.01 -72.266,85.87 -112.226,-18.7 -39.676,-104.3 z m 647.574,-700 71.98,12.47 24.94,66.88 -46.76,54.7 -71.7,-12.19 -25.23,-66.88 46.77,-54.98"
             style="fill:#000000;fill-opacity:1;fill-rule:evenodd;stroke:none"
             id="path52"
             inkscape:connector-curvature="0" /><path
             d="m 874.004,4212.46 v 0.28 c -120.441,44.21 -238.055,104.58 -350.281,179.39 -121.012,81.06 -210.567,160.41 -280.567,248.83 -43.359,54.41 -68.297,100.04 -81.051,148.5 -15.304,56.4 0.567,99.19 45.344,123 11.336,5.67 23.805,10.48 37.41,14.45 37.125,10.48 77.368,13.6 124.411,9.92 6.234,-0.57 12.468,-1.13 18.703,-1.7 7.086,-0.85 13.605,-1.13 20.972,-1.99 l 15.59,-1.13 18.985,67.17 c -4.532,0.56 -9.352,1.13 -14.168,1.7 -12.469,1.41 -24.09,3.12 -35.707,4.25 -23.243,1.98 -43.364,2.83 -62.352,2.83 -42.793,0 -80.484,-5.1 -114.207,-15.87 -72.27,-22.67 -113.93,-64.05 -128.0977,-126.68 -9.3516,-43.07 -2.836,-88.98 21.5387,-144.25 30.039,-68.86 77.082,-133.48 147.934,-203.76 156.437,-155.02 344.898,-274.33 575.867,-364.74 15.871,-6.23 31.742,-11.62 48.465,-17.57 7.082,-2.55 14.168,-5.1 21.535,-7.65 l 11.902,40.52 -42.226,44.5"
             style="fill:#000000;fill-opacity:1;fill-rule:evenodd;stroke:none"
             id="path54"
             inkscape:connector-curvature="0" /><path
             d="m 1438.82,4278.49 c -0.57,1.14 -1.41,2.55 -1.41,4.25 -5.11,38.55 -18.99,77.65 -43.08,120.16 -39.4,68.58 -93.24,133.48 -168.91,202.92 -18.99,17.57 -38.54,33.72 -58.95,51.01 -7.93,7.08 -16.43,14.17 -25.22,21.54 0,-0.57 0,-0.57 0,-0.85 -0.28,-1.7 -0.28,-2.55 -0.28,-3.12 l 0.57,-18.42 c 1.13,-22.1 1.98,-44.78 3.4,-67.17 0.28,-3.4 3.11,-7.93 7.65,-12.18 10.48,-10.77 21.25,-20.69 31.74,-30.89 18.99,-17.58 38.54,-35.99 56.4,-55.27 56.96,-60.93 94.08,-117.04 115.62,-176.27 10.2,-27.49 13.61,-52.43 10.2,-75.1 -5.66,-38.26 -30.32,-64.05 -75.38,-78.79 -12.19,-3.97 -24.65,-7.36 -37.69,-9.63 l 48.18,-60.65 c 7.36,2.27 14.73,4.53 22.38,7.37 61.22,23.52 97.78,62.63 111.1,119.59 l 4.53,17.86 v 42.51 c -0.28,0.28 -0.28,0.56 -0.85,1.13"
             style="fill:#000000;fill-opacity:1;fill-rule:evenodd;stroke:none"
             id="path56"
             inkscape:connector-curvature="0" /><path
             d="m 988.781,4848.13 c 3.117,-23.81 6.235,-47.9 9.071,-71.42 7.368,-53.28 14.448,-108.26 18.418,-162.96 4.25,-52.71 4.54,-107.41 1.14,-164.37 l 64.33,-81.34 c 1.42,16.44 3.12,33.16 4.25,50.17 9.07,121.86 5.39,241.74 -11.62,356.51 -3.4,24.09 -7.65,47.62 -12.19,72.27 -1.41,10.49 -3.4,21.26 -5.66,31.74 l -69.438,-17 c 0,-1.14 0.285,-2.55 0.285,-3.4 0.567,-3.69 1.133,-7.09 1.414,-10.2"
             style="fill:#000000;fill-opacity:1;fill-rule:evenodd;stroke:none"
             id="path58"
             inkscape:connector-curvature="0" /><path
             d="m 960.16,4121.49 c -11.621,-35.71 -24.656,-68.59 -39.676,-100.04 -19.554,-40.53 -45.629,-86.72 -88.421,-121.58 -45.911,-37.13 -94.372,-37.13 -140,0.28 -29.192,24.09 -53.844,56.12 -77.368,101.17 -32.875,62.07 -56.965,131.79 -77.367,224.74 l -0.285,1.99 c -1.133,3.96 -2.266,9.35 -4.535,11.05 -20.688,13.32 -41.094,26.07 -63.481,39.67 -4.816,3.69 -10.484,6.52 -15.586,9.92 0.848,-4.53 1.7,-9.06 2.266,-13.6 2.266,-12.47 3.969,-24.09 6.52,-35.99 22.953,-119.03 52.711,-206.6 96.07,-282.55 37.125,-65.47 87.855,-135.47 183.644,-154.74 h 40.809 c 88.707,17.57 137.734,79.64 174.293,138.58 9.633,15.59 18.137,31.46 25.789,46.77 11.617,24.37 22.388,49.88 32.308,75.66 l -54.98,58.67"
             style="fill:#000000;fill-opacity:1;fill-rule:evenodd;stroke:none"
             id="path60"
             inkscape:connector-curvature="0" /><path
             d="m 1935.62,4631.32 h 101.74 v 15.02 l -183.92,397.33 h -44.78 l -183.08,-397.33 v -15.02 h 101.74 l 23.81,51.3 h 160.69 z m -57.53,140.29 h -93.24 l 45.92,106.84 z"
             style="fill:#000000;fill-opacity:1;fill-rule:evenodd;stroke:none"
             id="path62"
             inkscape:connector-curvature="0" /><path
             d="m 2363.84,4775.57 c 102.87,69.72 73.97,262.15 -85.87,262.72 -59.51,0 -119.88,0 -178.54,0 0,-136.04 0,-271.5 0,-406.97 33.72,0 69.15,0 104,0 v 119.88 h 54.14 l 69.71,-119.88 h 116.2 v 15.02 z m -85.87,68.02 h -74.54 c 0,32.59 0,68.58 0,101.74 24.38,0 49.88,0.57 74.54,0 59.23,-0.56 56.4,-101.74 0,-101.74"
             style="fill:#000000;fill-opacity:1;fill-rule:evenodd;stroke:none"
             id="path64"
             inkscape:connector-curvature="0" /><path
             d="m 2576.11,4945.33 v -314.01 c 34.29,0 68.58,0 102.87,0 v 314.01 h 99.47 c 0,31.46 0,62.35 0,92.96 h -302.38 c 0,-30.61 0,-61.5 0,-92.96 h 100.04"
             style="fill:#000000;fill-opacity:1;fill-rule:evenodd;stroke:none"
             id="path66"
             inkscape:connector-curvature="0" /><path
             d="m 2971.73,4722.58 v 225.02 h 47.9 v 90.69 h -198.38 v -90.69 h 47.61 v -225.02 h -51.58 v -91.26 h 206.31 v 91.26 h -51.86"
             style="fill:#000000;fill-opacity:1;fill-rule:evenodd;stroke:none"
             id="path68"
             inkscape:connector-curvature="0" /><path
             d="m 3499.42,4631.32 v 13.32 l -41.94,69.15 c 20.41,32.03 32.59,72.27 32.59,120.45 0,281.41 -417.73,281.41 -417.73,0 0,-187.9 187.89,-249.96 311.17,-184.21 l 9.92,-18.71 z m -319.96,202.92 c 0,146.51 203.49,146.51 203.49,0 0,-147.65 -203.49,-147.65 -203.49,0"
             style="fill:#000000;fill-opacity:1;fill-rule:evenodd;stroke:none"
             id="path70"
             inkscape:connector-curvature="0" /><path
             d="m 1643.72,4206.22 c 13.89,-71.98 81.33,-87.85 135.46,-87.85 73.12,0 125.55,29.19 125.55,96.64 0,75.67 -65.75,91.25 -107.69,99.47 -51.58,9.92 -84.17,16.72 -84.17,50.45 0,28.62 23.24,43.64 62.63,43.64 41.95,0 64.62,-17.28 72.27,-45.91 l 54.13,14.17 c -14.74,52.71 -60.65,80.2 -129.8,80.2 -75.67,0 -121.58,-32.02 -121.58,-94.94 0,-63.76 49.03,-80.2 90.12,-89.55 56.97,-12.19 101.74,-15.02 101.74,-58.66 0,-32.59 -24.93,-47.61 -63.2,-47.61 -49.02,0 -75.66,24.37 -79.63,54.69 l -55.83,-14.74"
             style="fill:#000000;fill-opacity:1;fill-rule:evenodd;stroke:none"
             id="path72"
             inkscape:connector-curvature="0" /><path
             d="m 1971.33,4124.89 h 60.93 v 325.63 h -60.93 v -325.63"
             style="fill:#000000;fill-opacity:1;fill-rule:evenodd;stroke:none"
             id="path74"
             inkscape:connector-curvature="0" /><path
             d="m 2406.92,4124.89 v 325.63 h -61.22 v -160.41 c 0,-34.29 0.57,-66.32 0.57,-66.88 h -1.13 l -165.79,227.29 h -62.64 v -325.63 h 60.93 v 158.13 c 0,38.55 -1.13,73.41 -1.13,73.97 h 1.7 L 2344,4124.89 h 62.92"
             style="fill:#000000;fill-opacity:1;fill-rule:evenodd;stroke:none"
             id="path76"
             inkscape:connector-curvature="0" /><path
             d="m 2705.05,4201.69 28.63,-76.8 h 63.2 l -127.25,325.63 h -73.97 l -127.25,-325.63 h 62.35 l 28.34,76.8 z m -19.27,52.99 h -107.4 l 21.53,58.67 31.46,86.15 h 1.7 c 0.57,-0.85 8.79,-26.92 29.47,-82.75 l 23.24,-62.07"
             style="fill:#000000;fill-opacity:1;fill-rule:evenodd;stroke:none"
             id="path78"
             inkscape:connector-curvature="0" /><path
             d="m 3052.79,4124.89 h 65.75 l -80.21,132.06 c 38.26,11.05 66.88,40.53 66.88,90.69 0,64.61 -48.17,102.88 -131.5,102.88 h -116.75 v -325.63 h 60.93 v 119.88 h 28.62 c 6.24,0 23.24,0 33.72,0.56 z m -134.9,167.49 v 102.87 h 58.66 c 42.51,0 66.32,-16.15 66.32,-51.01 0,-34.29 -22.67,-51.86 -66.32,-51.86 h -58.66"
             style="fill:#000000;fill-opacity:1;fill-rule:evenodd;stroke:none"
             id="path80"
             inkscape:connector-curvature="0" /><path
             d="m 3395.13,4201.69 28.62,-76.8 h 63.2 l -127.24,325.63 h -73.97 l -127.25,-325.63 h 62.35 l 28.34,76.8 z m -19.27,52.99 h -107.41 l 21.54,58.67 31.46,86.15 h 1.7 c 0.56,-0.85 8.78,-26.92 29.47,-82.75 l 23.24,-62.07"
             style="fill:#000000;fill-opacity:1;fill-rule:evenodd;stroke:none"
             id="path82"
             inkscape:connector-curvature="0" /></g></g></g></g></svg>