<svg xmlns="http://www.w3.org/2000/svg" xmlns:xlink="http://www.w3.org/1999/xlink" version="1.1" x="0px" y="0px" enable-background="new 0 0 100 100" xml:space="preserve" viewBox="0 0 100 100"><g><path fill="#000000" d="M36.438,10.941c1.563,0,2.842-1.21,2.956-2.744c0.055-0.172-2.152-7.704-2.805-7.704h-0.293   c-0.652,0-2.864,7.505-2.815,7.667C33.578,9.712,34.863,10.941,36.438,10.941z"/><path fill="#000000" d="M72.438,61.733l-5.203-5.914c-0.079-0.093-0.18-0.154-0.286-0.194c-0.077-0.028-0.16-0.046-0.243-0.046   c-0.165,0-0.332,0.057-0.466,0.175l-6.007,5.282l-0.393,0.345l-1.58,1.391v-9.127v-0.312c0-0.436,0.353-0.79,0.79-0.79   s0.79,0.354,0.79,0.79v0.312l0,0v6.684l5.878-5.167c0.273-0.24,0.623-0.372,0.987-0.372c0.083,0,0.164,0.008,0.243,0.022v-7.404   c0-2.327-1.859-4.214-4.155-4.214H41.381c-0.747,0-1.42-0.519-1.599-1.216v-4.976l3.294,0.203c0.607,2.874,3.156,5.03,6.21,5.03   c3.053,0,5.603-2.156,6.21-5.028l4.46-0.276c0.546,0,0.987-0.443,0.987-0.987c0-0.544-0.441-0.986-0.96-0.986c0,0,0,0-0.002,0   l-4.462-0.275c-0.143-0.748-0.416-1.448-0.798-2.078l3.053-3.187c0.18-0.166,0.264-0.413,0.231-0.678   c-0.026-0.219-0.132-0.437-0.294-0.612c-0.21-0.226-0.488-0.355-0.762-0.355c-0.198,0-0.383,0.071-0.499,0.18l-3.439,2.793   c-0.674-0.489-1.446-0.848-2.283-1.042l-0.401-6.486c0-0.543-0.443-0.987-0.988-0.987c-0.544,0-0.986,0.443-0.986,0.961l-0.4,6.486   c-0.874,0.187-1.681,0.553-2.38,1.059l-3.41-2.766c-0.137-0.127-0.323-0.198-0.52-0.198c-0.274,0-0.552,0.129-0.762,0.356   c-0.163,0.175-0.268,0.392-0.294,0.611c-0.032,0.265,0.053,0.512,0.215,0.661l3.055,3.189c-0.386,0.633-0.662,1.34-0.806,2.093   l-3.271,0.203V21.733c0-1.247-0.642-2.341-1.612-2.976l0.722-3.769c0-0.081-0.008-0.161-0.018-0.238   c0.534-0.028,0.958-0.412,0.958-0.886V12.75c0-0.492-0.456-0.892-1.018-0.892h-4.832c-0.562,0-1.018,0.399-1.018,0.892v1.114   c0,0.475,0.424,0.858,0.958,0.886c-0.01,0.077-0.017,0.157-0.017,0.238l0.688,3.589c-1.141,0.592-1.922,1.782-1.922,3.155v66.458   c-0.937,0.087-1.67,0.874-1.67,1.834v2.084h-0.78c-1.228,0-2.224,0.825-2.224,1.844v4.203c0,1.018,0.996,1.844,2.224,1.844h30.667   c1.229,0,2.225-0.826,2.225-1.844v-4.203c0-1.019-0.995-1.844-2.225-1.844H60.11v-2.084c0-1.019-0.825-1.844-1.845-1.844H58.26   V68.119l1.631,1.855l1.386,1.575c0.139,0.158,0.334,0.239,0.53,0.239c0.165,0,0.332-0.057,0.465-0.176l4.679-4.114l5.424-4.769   C72.668,62.473,72.695,62.026,72.438,61.733z"/><path fill="#000000" d="M62.795,72.208c-0.271,0.238-0.62,0.368-0.98,0.371c0.477,0.237,1.012,0.374,1.581,0.374   c1.964,0,3.556-1.591,3.556-3.555l-0.001-0.847L62.795,72.208z"/></g></svg>